<svg
  width="160"
  height="160"
  viewBox="0 0 138 128"
  xmlns="http://www.w3.org/2000/svg"
  role="img"
  aria-label="Hand with heart"
>
  <!-- Heart (centered above palm) -->
  <path fill="#ffffff"
    d="M64 20
       c-8 -10 -24 -10 -32 2
       -6 9 -4 22 8 31
       l24 21 24 -21
       c12 -9 14 -22 8 -31
       -8 -12 -24 -12 -32 -2z" />

  <!-- Hand -->
  <path fill="#ffffff"
    d="
      M16 88
      c8 -8 18 -12 30 -10
      12 2 24 3 36 3
      h4 c4 0 7 3 7 7
      s-3 7 -7 7h-14
      c-4 0 -6 2 -6 4
      s2 4 6 4h18
      c14 0 28 -6 40 -10
      6 -2 10 2 10 6
      s-4 8 -10 10
      l-36 14
      c-12 4 -26 2 -34 -6
      L16 88z" />
</svg>
